:FULLY-SPECIFIED
:FORCE-ALL-JOINTS-BE-3DOF
:DEGREES
374
root 6.26323 16.5598 -16.0767 9.42248 -16.29 -6.58424
lfemur -41.4519 21.7807 -11.441
ltibia 60.1138 0 0
lfoot -5.52447 -2.63937 0
ltoes 17.4708 0 0
rfemur -22.1598 -2.05685 32.3585
rtibia 36.2771 0 0
rfoot -25.0336 2.05747 0
rtoes 14.5041 0 0
lowerback 4.58375 1.74678 3.57774
upperback 2.48917 2.46225 1.27826
thorax 0.122142 1.25087 -0.802822
lowerneck -7.67245 -1.70714 2.48121
upperneck -0.204356 -2.55752 2.2512
head 1.22091 -1.23751 0.19168
lclavicle 1.04405e-14 7.13761e-16 0
lhumerus -40.127 -22.6448 95.256
lradius 55.7901 0 0
lwrist 16.6659 0 0
lhand -19.8227 3.03585 0
lfingers 7.12502 0 0
lthumb 6.5101 32.8629 0
rclavicle 1.04405e-14 7.13761e-16 0
rhumerus -38.5515 11.9971 -94.71
rradius 61.5255 0 0
rwrist 8.72601 0 0
rhand -18.2391 -24.3814 0
rfingers 7.12502 0 0
rthumb 8.05424 -774.186 0
375
root 6.22412 16.5559 -15.9622 9.53127 -16.8667 -6.60878
lfemur -42.5802 21.7206 -12.1011
ltibia 58.6132 0 0
lfoot -6.06928 -1.53851 0
ltoes 16.5824 0 0
rfemur -21.717 -1.48483 32.0954
rtibia 36.5193 0 0
rfoot -24.766 1.68543 0
rtoes 15.0769 0 0
lowerback 4.66582 1.84701 3.66859
upperback 2.4983 2.60231 1.17736
thorax 0.0973847 1.3217 -0.966276
lowerneck -7.61471 -1.59377 2.68074
upperneck -0.264207 -2.41743 2.18238
head 1.19031 -1.17021 0.144226
lclavicle 1.00359e-14 -1.58885e-16 0
lhumerus -40.0075 -22.77 94.8984
lradius 55.6398 0 0
lwrist 16.8003 0 0
lhand -20.3335 2.81793 0
lfingers 7.12502 0 0
lthumb 6.0166 32.6607 0
rclavicle 1.00359e-14 -1.58885e-16 0
rhumerus -38.2721 12.5735 -94.4748
rradius 60.8279 0 0
rwrist 9.06335 0 0
rhand -16.442 -23.0497 0
rfingers 7.12502 0 0
rthumb 9.78203 -772.741 0
376
root 6.17549 16.5521 -15.8215 9.60341 -17.5851 -6.64044
lfemur -43.6285 21.5373 -12.6929
ltibia 57.0883 0 0
lfoot -6.60033 -0.42441 0
ltoes 15.7056 0 0
rfemur -21.2786 -1.02661 31.8544
rtibia 36.944 0 0
rfoot -24.3918 1.34243 0
rtoes 15.7165 0 0
lowerback 4.74675 1.96398 3.74785
upperback 2.5019 2.76374 1.06928
thorax 0.0677379 1.40314 -1.13096
lowerneck -7.5545 -1.45952 2.89895
upperneck -0.292798 -2.25175 2.10933
head 1.16883 -1.08929 0.0927979
lclavicle 9.53942e-15 -1.09708e-15 0
lhumerus -39.9105 -22.8458 94.5302
lradius 55.4682 0 0
lwrist 16.9365 0 0
lhand -20.8223 2.6079 0
lfingers 7.12502 0 0
lthumb 5.54445 32.4685 0
rclavicle 9.53942e-15 -1.09708e-15 0
rhumerus -38.0779 13.1017 -94.2795
rradius 60.1246 0 0
rwrist 9.38735 0 0
rhand -14.7951 -21.7754 0
rfingers 7.12502 0 0
rthumb 11.3658 -771.369 0
377
root 6.1157 16.5485 -15.6504 9.63323 -18.4738 -6.68412
lfemur -44.5917 21.2174 -13.2044
ltibia 55.5513 0 0
lfoot -7.11551 0.688929 0
ltoes 14.8634 0 0
rfemur -20.8388 -0.695072 31.6488
rtibia 37.5647 0 0
rfoot -23.9098 1.04157 0
rtoes 16.4294 0 0
lowerback 4.82758 2.10041 3.81561
upperback 2.49945 2.95005 0.95426
thorax 0.0320468 1.49696 -1.29668
lowerneck -7.4927 -1.29994 3.13798
upperneck -0.285146 -2.05489 2.03036
head 1.15801 -0.991832 0.0365953
lclavicle 8.95663e-15 -2.10766e-15 0
lhumerus -39.8363 -22.8607 94.1472
lradius 55.2729 0 0
lwrist 17.0728 0 0
lhand -21.2931 2.40461 0
lfingers 7.12502 0 0
lthumb 5.08997 32.2863 0
rclavicle 8.95663e-15 -2.10766e-15 0
rhumerus -37.9874 13.5699 -94.1392
rradius 59.4107 0 0
rwrist 9.69663 0 0
rhand -13.3393 -20.5788 0
rfingers 7.12502 0 0
rthumb 12.7665 -770.096 0
378
root 6.04315 16.5453 -15.4448 9.61505 -19.5614 -6.7447
lfemur -45.4644 20.7474 -13.6239
ltibia 54.0142 0 0
lfoot -7.61273 1.7875 0
ltoes 14.0788 0 0
rfemur -20.3918 -0.50314 31.4916
rtibia 38.395 0 0
rfoot -23.3189 0.795963 0
rtoes 17.2222 0 0
lowerback 4.90936 2.25901 3.87196
upperback 2.49043 3.16474 0.832564
thorax -0.0108436 1.60491 -1.46325
lowerneck -7.43022 -1.11059 3.39999
upperneck -0.236269 -1.82125 1.94382
head 1.15938 -0.874914 -0.0251836
lclavicle 8.29294e-15 -3.19745e-15 0
lhumerus -39.7855 -22.8033 93.7448
lradius 55.0514 0 0
lwrist 17.2078 0 0
lhand -21.7498 2.20687 0
lfingers 7.12502 0 0
lthumb 4.6495 32.1139 0
rclavicle 8.29294e-15 -3.19745e-15 0
rhumerus -38.019 13.9664 -94.0687
rradius 58.6814 0 0
rwrist 9.98977 0 0
rhand -12.1152 -19.4799 0
rfingers 7.12502 0 0
rthumb 13.9452 -768.947 0
379
root 5.95621 16.5429 -15.2007 9.54319 -20.8765 -6.8271
lfemur -46.2414 20.1137 -13.9394
ltibia 52.4892 0 0
lfoot -8.08989 2.85728 0
ltoes 13.3749 0 0
rfemur -19.9317 -0.463717 31.3962
rtibia 39.4485 0 0
rfoot -22.618 0.618733 0
rtoes 18.1011 0 0
lowerback 4.99316 2.4425 3.91702
upperback 2.47433 3.41131 0.704442
thorax -0.0620885 1.72875 -1.63046
lowerneck -7.36796 -0.887037 3.6871
upperneck -0.141185 -1.54524 1.84803
head 1.17445 -0.735625 -0.0933401
lclavicle 7.55382e-15 -4.37326e-15 0
lhumerus -39.7586 -22.6619 93.3187
lradius 54.8011 0 0
lwrist 17.3402 0 0
lhand -22.1962 2.01352 0
lfingers 7.12502 0 0
lthumb 4.21936 31.9515 0
rclavicle 7.55382e-15 -4.37326e-15 0
rhumerus -38.1913 14.2795 -94.0831
rradius 57.9319 0 0
rwrist 10.2654 0 0
rhand -11.1636 -18.4989 0
rfingers 7.12502 0 0
rthumb 14.8629 -767.946 0
380
root 5.86853 16.5414 -14.9514 9.43847 -22.2354 -6.90662
lfemur -46.8486 19.3644 -14.1451
ltibia 51.0258 0 0
lfoot -8.47658 3.87959 0
ltoes 12.7319 0 0
rfemur -19.4895 -0.593477 31.3588
rtibia 40.6754 0 0
rfoot -21.8421 0.480208 0
rtoes 19.0198 0 0
lowerback 5.06034 2.63236 3.93884
upperback 2.45158 3.66481 0.578185
thorax -0.111815 1.85592 -1.78208
lowerneck -7.30627 -0.667399 3.9655
upperneck -0.0180533 -1.27518 1.76738
head 1.19782 -0.598207 -0.155846
lclavicle 6.82638e-15 -5.63131e-15 0
lhumerus -39.7664 -22.4755 92.9198
lradius 54.5541 0 0
lwrist 17.4747 0 0
lhand -22.5512 1.8607 0
lfingers 7.12502 0 0
lthumb 3.87762 31.8278 0
rclavicle 6.82638e-15 -5.63131e-15 0
rhumerus -38.4431 14.5222 -94.1437
rradius 57.2307 0 0
rwrist 10.4902 0 0
rhand -10.4383 -17.6609 0
rfingers 7.12502 0 0
rthumb 15.5633 -767.107 0
381
root 5.79389 16.5408 -14.731 9.32533 -23.4431 -6.95672
lfemur -47.2262 18.5609 -14.248
ltibia 49.6636 0 0
lfoot -8.71455 4.84626 0
ltoes 12.1123 0 0
rfemur -19.1014 -0.889879 31.3612
rtibia 42.0083 0 0
rfoot -21.0278 0.34224 0
rtoes 19.9246 0 0
lowerback 5.09391 2.80864 3.92739
upperback 2.42334 3.89858 0.461375
thorax -0.150208 1.97301 -1.90376
lowerneck -7.24493 -0.489811 4.2027
upperneck 0.111477 -1.0593 1.72435
head 1.2231 -0.486993 -0.201435
lclavicle 6.18116e-15 -6.94872e-15 0
lhumerus -39.8169 -22.2907 92.5983
lradius 54.3415 0 0
lwrist 17.6157 0 0
lhand -22.7409 1.78055 0
lfingers 7.12502 0 0
lthumb 3.6952 31.7676 0
rclavicle 6.18116e-15 -6.94872e-15 0
rhumerus -38.7009 14.7165 -94.201
rradius 56.6455 0 0
rwrist 10.6368 0 0
rhand -9.86097 -16.9706 0
rfingers 7.12502 0 0
rthumb 16.1208 -766.418 0
382
root 5.73083 16.5408 -14.5367 9.2035 -24.5112 -6.97954
lfemur -47.3902 17.7101 -14.2558
ltibia 48.3998 0 0
lfoot -8.81994 5.75911 0
ltoes 11.5132 0 0
rfemur -18.7694 -1.33701 31.3948
rtibia 43.4347 0 0
rfoot -20.1763 0.205216 0
rtoes 20.811 0 0
lowerback 5.0974 2.97193 3.88559
upperback 2.39019 4.11353 0.353196
thorax -0.178507 2.08049 -1.99813
lowerneck -7.18399 -0.349849 4.40283
upperneck 0.247157 -0.891847 1.7144
head 1.25038 -0.399207 -0.232051
lclavicle 5.59872e-15 -8.30375e-15 0
lhumerus -39.9068 -22.1076 92.3488
lradius 54.1595 0 0
lwrist 17.7611 0 0
lhand -22.7804 1.7659 0
lfingers 7.12502 0 0
lthumb 3.6577 31.7645 0
rclavicle 5.59872e-15 -8.30375e-15 0
rhumerus -38.9647 14.864 -94.2537
rradius 56.1705 0 0
rwrist 10.7124 0 0
rhand -9.42436 -16.4174 0
rfingers 7.12502 0 0
rthumb 16.5426 -765.868 0
383
root 5.67791 16.5413 -14.3655 9.07272 -25.4514 -6.97721
lfemur -47.3566 16.8187 -14.1759
ltibia 47.2313 0 0
lfoot -8.80888 6.61994 0
ltoes 10.9314 0 0
rfemur -18.4958 -1.91895 31.4511
rtibia 44.9419 0 0
rfoot -19.2888 0.0695286 0
rtoes 21.6747 0 0
lowerback 5.07436 3.12279 3.81639
upperback 2.35269 4.31058 0.252834
thorax -0.197954 2.17884 -2.06783
lowerneck -7.12353 -0.243088 4.57005
upperneck 0.388736 -0.767069 1.73299
head 1.27974 -0.332071 -0.24964
lclavicle 5.05964e-15 -9.67461e-15 0
lhumerus -40.0326 -21.9266 92.1659
lradius 54.0043 0 0
lwrist 17.9085 0 0
lhand -22.6844 1.80959 0
lfingers 7.12502 0 0
lthumb 3.75074 31.8121 0
rclavicle 5.05964e-15 -9.67461e-15 0
rhumerus -39.2345 14.9664 -94.3006
rradius 55.8001 0 0
rwrist 10.7242 0 0
rhand -9.1212 -15.9906 0
rfingers 7.12502 0 0
rthumb 16.8356 -765.448 0
384
root 5.63368 16.542 -14.2144 8.93272 -26.2754 -6.95186
lfemur -47.1416 15.8932 -14.0159
ltibia 46.1554 0 0
lfoot -8.6975 7.43056 0
ltoes 10.3637 0 0
rfemur -18.2824 -2.61979 31.5215
rtibia 46.5172 0 0
rfoot -18.3664 -0.0644337 0
rtoes 22.511 0 0
lowerback 5.0283 3.26179 3.72272
upperback 2.31141 4.49064 0.159475
thorax -0.209788 2.26852 -2.11548
lowerneck -7.0636 -0.165102 4.70849
upperneck 0.535965 -0.679219 1.77557
head 1.31126 -0.282809 -0.256145
lclavicle 4.54448e-15 -1.10396e-14 0
lhumerus -40.1909 -21.7478 92.044
lradius 53.872 0 0
lwrist 18.056 0 0
lhand -22.4679 1.90443 0
lfingers 7.12502 0 0
lthumb 3.95993 31.9041 0
rclavicle 4.54448e-15 -1.10396e-14 0
rhumerus -39.5103 15.0252 -94.3405
rradius 55.5282 0 0
rwrist 10.6797 0 0
rhand -8.9442 -15.6797 0
rfingers 7.12502 0 0
rthumb 17.0068 -765.145 0
385
root 5.59668 16.5428 -14.0805 8.78325 -26.9949 -6.90563
lfemur -46.7611 14.9404 -13.7834
ltibia 45.169 0 0
lfoot -8.50196 8.19277 0
ltoes 9.807 0 0
rfemur -18.1316 -3.4236 31.5974
rtibia 48.1481 0 0
rfoot -17.4104 -0.196281 0
rtoes 23.3157 0 0
lowerback 4.96275 3.3895 3.60752
upperback 2.26691 4.65463 0.0723026
thorax -0.215249 2.35001 -2.14373
lowerneck -7.00426 -0.111468 4.8223
upperneck 0.688592 -0.622548 1.83761
head 1.34502 -0.248643 -0.25351
lclavicle 4.03381e-15 -1.23768e-14 0
lhumerus -40.3783 -21.5714 91.9778
lradius 53.7588 0 0
lwrist 18.2012 0 0
lhand -22.1459 2.04327 0
lfingers 7.12502 0 0
lthumb 4.27085 32.034 0
rclavicle 4.03381e-15 -1.23768e-14 0
rhumerus -39.7922 15.0422 -94.3721
rradius 55.3492 0 0
rwrist 10.5861 0 0
rhand -8.88609 -15.4742 0
rfingers 7.12502 0 0
rthumb 17.0632 -764.951 0
386
root 5.56548 16.5433 -13.9609 8.62402 -27.6216 -6.84065
lfemur -46.2312 13.9669 -13.4859
ltibia 44.2693 0 0
lfoot -8.23837 8.90838 0
ltoes 9.25826 0 0
rfemur -18.0453 -4.31448 31.6701
rtibia 49.8219 0 0
rfoot -16.4218 -0.325622 0
rtoes 24.0843 0 0
lowerback 4.88125 3.50649 3.47372
upperback 2.21977 4.80346 -0.00949689
thorax -0.21558 2.42376 -2.15521
lowerneck -6.94557 -0.0777596 4.91561
upperneck 0.846368 -0.591307 1.91458
head 1.3811 -0.226796 -0.243681
lclavicle 3.5082e-15 -1.36646e-14 0
lhumerus -40.5913 -21.3976 91.9617
lradius 53.661 0 0
lwrist 18.3421 0 0
lhand -21.7333 2.21892 0
lfingers 7.12502 0 0
lthumb 4.66913 32.1955 0
rclavicle 3.5082e-15 -1.36646e-14 0
rhumerus -40.08 15.0189 -94.3942
rradius 55.2572 0 0
rwrist 10.4507 0 0
rhand -8.93961 -15.3634 0
rfingers 7.12502 0 0
rthumb 17.0119 -764.853 0
